<svg width="90" height="94" viewBox="0 0 90 94" fill="none" xmlns="http://www.w3.org/2000/svg">
<path d="M16.83 52V45H19.86C20.4867 45 21.0267 45.1033 21.48 45.31C21.9333 45.51 22.2833 45.8 22.53 46.18C22.7767 46.56 22.9 47.0133 22.9 47.54C22.9 48.06 22.7767 48.51 22.53 48.89C22.2833 49.2633 21.9333 49.55 21.48 49.75C21.0267 49.95 20.4867 50.05 19.86 50.05H17.73L18.45 49.34V52H16.83ZM21.28 52L19.53 49.46H21.26L23.03 52H21.28ZM18.45 49.52L17.73 48.76H19.77C20.27 48.76 20.6433 48.6533 20.89 48.44C21.1367 48.22 21.26 47.92 21.26 47.54C21.26 47.1533 21.1367 46.8533 20.89 46.64C20.6433 46.4267 20.27 46.32 19.77 46.32H17.73L18.45 45.55V49.52ZM27.4247 52V50.95L27.3247 50.72V48.84C27.3247 48.5067 27.2214 48.2467 27.0147 48.06C26.8147 47.8733 26.5047 47.78 26.0847 47.78C25.798 47.78 25.5147 47.8267 25.2347 47.92C24.9614 48.0067 24.728 48.1267 24.5347 48.28L23.9747 47.19C24.268 46.9833 24.6214 46.8233 25.0347 46.71C25.448 46.5967 25.868 46.54 26.2947 46.54C27.1147 46.54 27.7514 46.7333 28.2047 47.12C28.658 47.5067 28.8847 48.11 28.8847 48.93V52H27.4247ZM25.7847 52.08C25.3647 52.08 25.0047 52.01 24.7047 51.87C24.4047 51.7233 24.1747 51.5267 24.0147 51.28C23.8547 51.0333 23.7747 50.7567 23.7747 50.45C23.7747 50.13 23.8514 49.85 24.0047 49.61C24.1647 49.37 24.4147 49.1833 24.7547 49.05C25.0947 48.91 25.538 48.84 26.0847 48.84H27.5147V49.75H26.2547C25.888 49.75 25.6347 49.81 25.4947 49.93C25.3614 50.05 25.2947 50.2 25.2947 50.38C25.2947 50.58 25.3714 50.74 25.5247 50.86C25.6847 50.9733 25.9014 51.03 26.1747 51.03C26.4347 51.03 26.668 50.97 26.8747 50.85C27.0814 50.7233 27.2314 50.54 27.3247 50.3L27.5647 51.02C27.4514 51.3667 27.2447 51.63 26.9447 51.81C26.6447 51.99 26.258 52.08 25.7847 52.08ZM33.6966 52V50.95L33.5966 50.72V48.84C33.5966 48.5067 33.4932 48.2467 33.2866 48.06C33.0866 47.8733 32.7766 47.78 32.3566 47.78C32.0699 47.78 31.7866 47.8267 31.5066 47.92C31.2332 48.0067 30.9999 48.1267 30.8066 48.28L30.2466 47.19C30.5399 46.9833 30.8932 46.8233 31.3066 46.71C31.7199 46.5967 32.1399 46.54 32.5666 46.54C33.3866 46.54 34.0232 46.7333 34.4766 47.12C34.9299 47.5067 35.1566 48.11 35.1566 48.93V52H33.6966ZM32.0566 52.08C31.6366 52.08 31.2766 52.01 30.9766 51.87C30.6766 51.7233 30.4466 51.5267 30.2866 51.28C30.1266 51.0333 30.0466 50.7567 30.0466 50.45C30.0466 50.13 30.1232 49.85 30.2766 49.61C30.4366 49.37 30.6866 49.1833 31.0266 49.05C31.3666 48.91 31.8099 48.84 32.3566 48.84H33.7866V49.75H32.5266C32.1599 49.75 31.9066 49.81 31.7666 49.93C31.6332 50.05 31.5666 50.2 31.5666 50.38C31.5666 50.58 31.6432 50.74 31.7966 50.86C31.9566 50.9733 32.1732 51.03 32.4466 51.03C32.7066 51.03 32.9399 50.97 33.1466 50.85C33.3532 50.7233 33.5032 50.54 33.5966 50.3L33.8366 51.02C33.7232 51.3667 33.5166 51.63 33.2166 51.81C32.9166 51.99 32.5299 52.08 32.0566 52.08ZM36.7784 52V45H39.9584C40.7184 45 41.3884 45.1467 41.9684 45.44C42.5484 45.7267 43.0018 46.13 43.3284 46.65C43.6551 47.17 43.8184 47.7867 43.8184 48.5C43.8184 49.2067 43.6551 49.8233 43.3284 50.35C43.0018 50.87 42.5484 51.2767 41.9684 51.57C41.3884 51.8567 40.7184 52 39.9584 52H36.7784ZM38.3984 50.67H39.8784C40.3451 50.67 40.7484 50.5833 41.0884 50.41C41.4351 50.23 41.7018 49.9767 41.8884 49.65C42.0818 49.3233 42.1784 48.94 42.1784 48.5C42.1784 48.0533 42.0818 47.67 41.8884 47.35C41.7018 47.0233 41.4351 46.7733 41.0884 46.6C40.7484 46.42 40.3451 46.33 39.8784 46.33H38.3984V50.67ZM45.0302 52V46.62H46.5902V52H45.0302ZM45.8102 45.87C45.5235 45.87 45.2902 45.7867 45.1102 45.62C44.9302 45.4533 44.8402 45.2467 44.8402 45C44.8402 44.7533 44.9302 44.5467 45.1102 44.38C45.2902 44.2133 45.5235 44.13 45.8102 44.13C46.0968 44.13 46.3302 44.21 46.5102 44.37C46.6902 44.5233 46.7802 44.7233 46.7802 44.97C46.7802 45.23 46.6902 45.4467 46.5102 45.62C46.3368 45.7867 46.1035 45.87 45.8102 45.87ZM50.668 54.02C50.1613 54.02 49.6713 53.9567 49.198 53.83C48.7313 53.71 48.3413 53.5267 48.028 53.28L48.648 52.16C48.8746 52.3467 49.1613 52.4933 49.508 52.6C49.8613 52.7133 50.208 52.77 50.548 52.77C51.1013 52.77 51.5013 52.6467 51.748 52.4C52.0013 52.1533 52.128 51.7867 52.128 51.3V50.49L52.228 49.14L52.208 47.78V46.62H53.688V51.1C53.688 52.1 53.428 52.8367 52.908 53.31C52.388 53.7833 51.6413 54.02 50.668 54.02ZM50.428 51.74C49.928 51.74 49.4746 51.6333 49.068 51.42C48.668 51.2 48.3446 50.8967 48.098 50.51C47.858 50.1167 47.738 49.66 47.738 49.14C47.738 48.6133 47.858 48.1567 48.098 47.77C48.3446 47.3767 48.668 47.0733 49.068 46.86C49.4746 46.6467 49.928 46.54 50.428 46.54C50.8813 46.54 51.2813 46.6333 51.628 46.82C51.9746 47 52.2446 47.2833 52.438 47.67C52.6313 48.05 52.728 48.54 52.728 49.14C52.728 49.7333 52.6313 50.2233 52.438 50.61C52.2446 50.99 51.9746 51.2733 51.628 51.46C51.2813 51.6467 50.8813 51.74 50.428 51.74ZM50.738 50.46C51.0113 50.46 51.2546 50.4067 51.468 50.3C51.6813 50.1867 51.848 50.03 51.968 49.83C52.088 49.63 52.148 49.4 52.148 49.14C52.148 48.8733 52.088 48.6433 51.968 48.45C51.848 48.25 51.6813 48.0967 51.468 47.99C51.2546 47.8767 51.0113 47.82 50.738 47.82C50.4646 47.82 50.2213 47.8767 50.008 47.99C49.7946 48.0967 49.6246 48.25 49.498 48.45C49.378 48.6433 49.318 48.8733 49.318 49.14C49.318 49.4 49.378 49.63 49.498 49.83C49.6246 50.03 49.7946 50.1867 50.008 50.3C50.2213 50.4067 50.4646 50.46 50.738 50.46ZM55.2399 52V46.62H56.7999V52H55.2399ZM56.0199 45.87C55.7333 45.87 55.4999 45.7867 55.3199 45.62C55.1399 45.4533 55.0499 45.2467 55.0499 45C55.0499 44.7533 55.1399 44.5467 55.3199 44.38C55.4999 44.2133 55.7333 44.13 56.0199 44.13C56.3066 44.13 56.5399 44.21 56.7199 44.37C56.8999 44.5233 56.9899 44.7233 56.9899 44.97C56.9899 45.23 56.8999 45.4467 56.7199 45.62C56.5466 45.7867 56.3133 45.87 56.0199 45.87ZM60.5477 52.08C59.9144 52.08 59.4211 51.92 59.0677 51.6C58.7144 51.2733 58.5377 50.79 58.5377 50.15V45.43H60.0977V50.13C60.0977 50.3567 60.1577 50.5333 60.2777 50.66C60.3977 50.78 60.5611 50.84 60.7677 50.84C61.0144 50.84 61.2244 50.7733 61.3977 50.64L61.8177 51.74C61.6577 51.8533 61.4644 51.94 61.2377 52C61.0177 52.0533 60.7877 52.08 60.5477 52.08ZM57.7077 47.94V46.74H61.4377V47.94H57.7077ZM66.0934 52V50.95L65.9934 50.72V48.84C65.9934 48.5067 65.8901 48.2467 65.6834 48.06C65.4834 47.8733 65.1734 47.78 64.7534 47.78C64.4668 47.78 64.1834 47.8267 63.9034 47.92C63.6301 48.0067 63.3968 48.1267 63.2034 48.28L62.6434 47.19C62.9368 46.9833 63.2901 46.8233 63.7034 46.71C64.1168 46.5967 64.5368 46.54 64.9634 46.54C65.7834 46.54 66.4201 46.7333 66.8734 47.12C67.3268 47.5067 67.5534 48.11 67.5534 48.93V52H66.0934ZM64.4534 52.08C64.0334 52.08 63.6734 52.01 63.3734 51.87C63.0734 51.7233 62.8434 51.5267 62.6834 51.28C62.5234 51.0333 62.4434 50.7567 62.4434 50.45C62.4434 50.13 62.5201 49.85 62.6734 49.61C62.8334 49.37 63.0834 49.1833 63.4234 49.05C63.7634 48.91 64.2068 48.84 64.7534 48.84H66.1834V49.75H64.9234C64.5568 49.75 64.3034 49.81 64.1634 49.93C64.0301 50.05 63.9634 50.2 63.9634 50.38C63.9634 50.58 64.0401 50.74 64.1934 50.86C64.3534 50.9733 64.5701 51.03 64.8434 51.03C65.1034 51.03 65.3368 50.97 65.5434 50.85C65.7501 50.7233 65.9001 50.54 65.9934 50.3L66.2334 51.02C66.1201 51.3667 65.9134 51.63 65.6134 51.81C65.3134 51.99 64.9268 52.08 64.4534 52.08ZM69.0653 52V44.58H70.6253V52H69.0653Z" fill="white"/>
<path d="M45 78.3623L29.4958 64.1146C18.5294 54.037 0 61.1609 0 75.4085V94H90V37.0093L45 78.3623Z" fill="white" fill-opacity="0.61"/>
<path d="M45 15.6377L60.5042 29.8853C71.4706 39.9629 90 32.8391 90 18.5915V0H0V56.9906L45 15.6377Z" fill="white" fill-opacity="0.61"/>
</svg>
